<?xml version="1.0" encoding="UTF-8"?>
<!DOCTYPE svg PUBLIC "-//W3C//DTD SVG 1.1//EN" "http://www.w3.org/Graphics/SVG/1.1/DTD/svg11.dtd">
<svg version="1.1" xmlns="http://www.w3.org/2000/svg" xmlns:xlink="http://www.w3.org/1999/xlink" x="0" y="0" width="40" height="40" viewBox="0, 0, 200, 200">
  <g id="Layer_1">
    <path d="M99.991,2.772 C44.943,2.772 0.312,47.404 0.312,102.464 C0.312,146.508 28.873,183.869 68.486,197.057 C73.474,197.969 75.291,194.891 75.291,192.247 C75.291,189.885 75.206,183.612 75.157,175.295 C47.428,181.317 41.578,161.929 41.578,161.929 C37.043,150.418 30.507,147.352 30.507,147.352 C21.456,141.165 31.192,141.287 31.192,141.287 C41.198,141.997 46.461,151.563 46.461,151.563 C55.353,166.795 69.796,162.395 75.475,159.849 C76.381,153.405 78.951,149.011 81.803,146.52 C59.668,144.005 36.394,135.449 36.394,97.25 C36.394,86.369 40.28,77.47 46.657,70.5 C45.629,67.979 42.208,57.844 47.63,44.118 C47.63,44.118 56.002,41.437 75.047,54.338 C82.996,52.128 91.527,51.021 100.003,50.984 C108.467,51.021 116.998,52.128 124.96,54.338 C143.992,41.437 152.345,44.118 152.345,44.118 C157.786,57.844 154.365,67.979 153.337,70.5 C159.726,77.47 163.588,86.369 163.588,97.25 C163.588,135.547 140.277,143.974 118.069,146.44 C121.649,149.519 124.837,155.602 124.837,164.904 C124.837,178.226 124.715,188.979 124.715,192.247 C124.715,194.915 126.508,198.018 131.569,197.045 C171.152,183.832 199.688,146.495 199.688,102.464 C199.688,47.404 155.05,2.772 99.991,2.772" fill="#161514"/>
  </g>
</svg>
